<?xml version="1.0" encoding="UTF-8" standalone="no"?>
<svg
   xmlns:dc="http://purl.org/dc/elements/1.1/"
   xmlns:cc="http://creativecommons.org/ns#"
   xmlns:rdf="http://www.w3.org/1999/02/22-rdf-syntax-ns#"
   xmlns:svg="http://www.w3.org/2000/svg"
   xmlns="http://www.w3.org/2000/svg"
   id="svg12"
   version="1.1"
   viewBox="0 0 368.41 141.42">
  <metadata
     id="metadata16">
    <rdf:RDF>
      <cc:Work
         rdf:about="">
        <dc:format>image/svg+xml</dc:format>
        <dc:type
           rdf:resource="http://purl.org/dc/dcmitype/StillImage" />
      </cc:Work>
    </rdf:RDF>
  </metadata>
  <defs
     id="defs4">
    <style
       id="style2">.cls-1{fill:#fff;stroke:#231f20;stroke-miterlimit:10;}.cls-2{fill:#e62625;}</style>
  </defs>
  <g
     data-name="Layer 2"
     id="Layer_2">
    <g
       data-name="Layer 1"
       id="Layer_1-2">
      <rect
         id="rect6"
         height="87.98"
         width="255.71"
         y="25.12"
         x="56.35"
         class="cls-1" />
      <path
         id="path8"
         d="M184.2,0C82.47,0,0,31.66,0,70.71s82.47,70.71,184.2,70.71,184.21-31.66,184.21-70.71S285.94,0,184.2,0ZM110.69,44.27c-10.2-.06-20.41,0-30.61-.1-2.46,0-3.07.68-3,2.88.17,3.92.09,7.85,0,11.77,0,1.47.24,2.12,2.13,2.09,9.51-.11,19,0,28.53-.06,2,0,2.73.54,2.65,2.48-.15,3.43-.14,6.87,0,10.29.08,1.91-.69,2.31-2.56,2.3-9.25-.08-18.5,0-27.75-.08-2.32,0-3.1.41-3.06,2.76.16,9.15,0,18.3.11,27.45,0,1.84-.46,2.35-2.44,2.29q-7.91-.23-15.82,0c-1.94.06-2.24-.58-2.23-2.21.07-12.42,0-24.84,0-37.25h0q0-18,0-36c0-4.06,0-3.31,3.4-3.31q24.65,0,49.29,0c3.32,0,3.32,0,3.32,3.19s0,6.38.06,9.56C112.83,43.8,112.26,44.28,110.69,44.27Zm73,51.17c-.12,3.51-.14,7,0,10.54.07,1.76-.35,2.37-2.39,2.36q-25.94-.12-51.87,0c-1.91,0-2.27-.61-2.26-2.25.06-12.33,0-24.67,0-37h0c0-12.25.07-24.51-.06-36.76,0-2.28.9-2.73,3-2.71,5.27.08,10.55.14,15.81,0,2.37-.08,3.09.5,3.08,2.82-.11,19.28,0,38.56-.15,57.84,0,2.52.67,3.15,3.29,3.1,9.77-.15,19.54,0,29.3-.11C183.39,93.22,183.79,93.79,183.73,95.44Zm32.14,10.94c0,1.45-.36,2-2,2-5.45-.1-10.89-.12-16.33,0-1.87,0-2.29-.52-2.28-2.2.07-12.41,0-24.82,0-37.23h0c0-12.33,0-24.67-.05-37,0-1.88.39-2.55,2.53-2.49,5.27.16,10.54.12,15.81,0,1.89-.05,2.34.58,2.33,2.25Q215.82,69,215.87,106.38Zm63.65-34.71c7.72,11.3,15.29,22.69,22.9,34.06a4.47,4.47,0,0,1,1.08,2.57c-7.73,0-15.41,0-23.08,0-1.39,0-1.68-.94-2.14-1.79q-6.58-12.07-13.17-24.16c-.26-.48-.28-1.15-1.25-1.33-2.8,5.71-5.63,11.46-8.44,17.21-1.41,2.89-2.83,5.77-4.18,8.69a2,2,0,0,1-2.09,1.37c-7.27,0-14.53,0-21.8,0-.47,0-1.16.23-1.38-.31s.23-1.15.63-1.71c8.44-11.83,16.82-23.7,25.3-35.5.95-1.33.82-2.18-.05-3.45q-11.67-17.08-23.19-34.24c-.5-.74-.91-1.53-1.3-2.2.4-.79,1-.58,1.45-.58,6.75,0,13.5,0,20.24,0a2.72,2.72,0,0,1,2.81,1.59c4.4,8,8.92,15.86,13.39,23.78.21.36.3.77,1,.93,3.15-6.47,6.39-13,9.48-19.5,3-6.34,2.94-6.37,10.18-6.37,5.37,0,10.73,0,16.09,0,.65,0,1.52-.33,1.91.32s-.42,1.17-.77,1.69c-7.85,11.34-15.67,22.69-23.62,34C278.2,68.55,278.24,69.81,279.52,71.67Z"
         class="cls-2" />
    </g>
  </g>
</svg>
