<svg xmlns="http://www.w3.org/2000/svg" viewBox="0 0 370.09 209.52"><defs><style>.cls-1,.cls-3{fill:#fff;}.cls-1{stroke:#231f20;stroke-miterlimit:10;}.cls-2{fill:#e62625;}</style></defs><g id="Layer_2" data-name="Layer 2"><g id="Layer_1-2" data-name="Layer 1"><rect class="cls-1" x="56.35" y="25.12" width="255.71" height="87.98"/><path class="cls-2" d="M184.2,0C82.47,0,0,31.66,0,70.71s82.47,70.71,184.2,70.71,184.21-31.66,184.21-70.71S285.94,0,184.2,0ZM110.69,44.27c-10.2-.06-20.41,0-30.61-.1-2.46,0-3.07.68-3,2.88.17,3.92.09,7.85,0,11.77,0,1.47.24,2.12,2.13,2.09,9.51-.11,19,0,28.53-.06,2,0,2.73.54,2.65,2.48-.15,3.43-.14,6.87,0,10.29.08,1.91-.69,2.31-2.56,2.3-9.25-.08-18.5,0-27.75-.08-2.32,0-3.1.41-3.06,2.76.16,9.15,0,18.3.11,27.45,0,1.84-.46,2.35-2.44,2.29q-7.91-.23-15.82,0c-1.94.06-2.24-.58-2.23-2.21.07-12.42,0-24.84,0-37.25h0q0-18,0-36c0-4.06,0-3.31,3.4-3.31q24.65,0,49.29,0c3.32,0,3.32,0,3.32,3.19s0,6.38.06,9.56C112.83,43.8,112.26,44.28,110.69,44.27Zm73,51.17c-.12,3.51-.14,7,0,10.54.07,1.76-.35,2.37-2.39,2.36q-25.94-.12-51.87,0c-1.91,0-2.27-.61-2.26-2.25.06-12.33,0-24.67,0-37h0c0-12.25.07-24.51-.06-36.76,0-2.28.9-2.73,3-2.71,5.27.08,10.55.14,15.81,0,2.37-.08,3.09.5,3.08,2.82-.11,19.28,0,38.56-.15,57.84,0,2.52.67,3.15,3.29,3.1,9.77-.15,19.54,0,29.3-.11C183.39,93.22,183.79,93.79,183.73,95.44Zm32.14,10.94c0,1.45-.36,2-2,2-5.45-.1-10.89-.12-16.33,0-1.87,0-2.29-.52-2.28-2.2.07-12.41,0-24.82,0-37.23h0c0-12.33,0-24.67-.05-37,0-1.88.39-2.55,2.53-2.49,5.27.16,10.54.12,15.81,0,1.89-.05,2.34.58,2.33,2.25Q215.82,69,215.87,106.38Zm63.65-34.71c7.72,11.3,15.29,22.69,22.9,34.06a4.47,4.47,0,0,1,1.08,2.57c-7.73,0-15.41,0-23.08,0-1.39,0-1.68-.94-2.14-1.79q-6.58-12.07-13.17-24.16c-.26-.48-.28-1.15-1.25-1.33-2.8,5.71-5.63,11.46-8.44,17.21-1.41,2.89-2.83,5.77-4.18,8.69a2,2,0,0,1-2.09,1.37c-7.27,0-14.53,0-21.8,0-.47,0-1.16.23-1.38-.31s.23-1.15.63-1.71c8.44-11.83,16.82-23.7,25.3-35.5.95-1.33.82-2.18-.05-3.45q-11.67-17.08-23.19-34.24c-.5-.74-.91-1.53-1.3-2.2.4-.79,1-.58,1.45-.58,6.75,0,13.5,0,20.24,0a2.72,2.72,0,0,1,2.81,1.59c4.4,8,8.92,15.86,13.39,23.78.21.36.3.77,1,.93,3.15-6.47,6.39-13,9.48-19.5,3-6.34,2.94-6.37,10.18-6.37,5.37,0,10.73,0,16.09,0,.65,0,1.52-.33,1.91.32s-.42,1.17-.77,1.69c-7.85,11.34-15.67,22.69-23.62,34C278.2,68.55,278.24,69.81,279.52,71.67Z"/><path class="cls-3" d="M49.55,163.2H31.77v45.55H17.49V163.2H0V152.78H49.55Z"/><path class="cls-3" d="M92.3,185H69.84v13.38H96.37v10.38H55.57v-56H96.45V163.2H69.84V175H92.3Z"/><path class="cls-3" d="M116.46,198.37h24.85v10.38H102.18v-56h14.28Z"/><path class="cls-3" d="M184.07,185H161.61v13.38h26.53v10.38h-40.8v-56h40.88V163.2H161.61V175h22.46Z"/><path class="cls-3" d="M241.87,189.8a19.65,19.65,0,0,1-3.33,10.32,19.85,19.85,0,0,1-8.57,6.94,30.58,30.58,0,0,1-12.59,2.46q-11.67,0-18.38-7.19T192.28,182v-2.76a32.28,32.28,0,0,1,3-14.4,22.18,22.18,0,0,1,8.73-9.54A25.46,25.46,0,0,1,217.22,152q10.78,0,17.33,5.36T242,172.12H227.76q-.16-5.12-2.73-7.35c-1.71-1.48-4.31-2.23-7.81-2.23s-6.16,1.26-7.81,3.77-2.52,6.52-2.6,12v4c0,6,.79,10.24,2.38,12.81s4.31,3.84,8.19,3.84q4.92,0,7.53-2.19c1.73-1.46,2.66-3.78,2.76-7Z"/><path class="cls-3" d="M298.78,181.92a31.48,31.48,0,0,1-3.21,14.49,22.94,22.94,0,0,1-9.14,9.71,26.53,26.53,0,0,1-13.48,3.4,27,27,0,0,1-13.43-3.28,23.1,23.1,0,0,1-9.13-9.4,30.6,30.6,0,0,1-3.43-14v-3.15a31.6,31.6,0,0,1,3.19-14.51,22.89,22.89,0,0,1,9.15-9.71,28.48,28.48,0,0,1,27,0,23.35,23.35,0,0,1,9.17,9.63,30.71,30.71,0,0,1,3.32,14.32Zm-14.52-2.35q0-8.34-2.95-12.66a9.6,9.6,0,0,0-8.44-4.33q-10.74,0-11.35,15.23l0,4.11q0,8.22,2.89,12.65A9.56,9.56,0,0,0,273,199a9.46,9.46,0,0,0,8.34-4.35q2.93-4.33,3-12.49Z"/><path class="cls-3" d="M324.89,152.78l13.22,38.94,13.18-38.94h18.8v56H355.77V195.68l1.38-26.76-14.32,39.83H333.4L319,168.89l1.38,26.79v13.07H306.14v-56Z"/></g></g></svg>