<?xml version="1.0" encoding="utf-8"?>
<!-- Generator: Adobe Illustrator 25.2.1, SVG Export Plug-In . SVG Version: 6.00 Build 0)  -->
<svg version="1.1" id="Layer_1" xmlns="http://www.w3.org/2000/svg" xmlns:xlink="http://www.w3.org/1999/xlink" x="0px" y="0px"
	 viewBox="0 0 2500 2500" style="enable-background:new 0 0 2500 2500;" xml:space="preserve">
<style type="text/css">
	.st0{fill-rule:evenodd;clip-rule:evenodd;}
</style>
<path class="st0" d="M232.1,1411.7c-84.9,0-157.4-77-157.4-161.1c0-83.7,71-162.3,156.8-162.3c56.4,0,97.1,27.3,130.1,70.1h41.6
	c-12.4-22.5-25.8-43.1-46.1-59.2c-34.9-28.2-80.1-44.9-125-44.9c-107.7,0-195.4,88.9-195.4,196c0,107.4,88.9,195.4,196,195.4
	c43.7,0,86.5-16.1,120.7-43.1c21.5-17.3,36.7-39.7,51.3-62.8h-41.6C330.4,1382.6,288.6,1411.7,232.1,1411.7L232.1,1411.7z
	 M662.9,1206.9c-26.1-33.7-61.6-54.9-105.6-54.9c-78.9,0-143.8,64-143.8,142.9c0,78.9,65.2,143.5,143.8,143.5
	c45.8,0,77.6-19.1,105.6-54.3v47.9h34.3v-273.3h-34.3V1206.9z M555.5,1406.8c-60.4,0-108-52.5-108-111.6
	c0-58.9,47.3-111.6,108-111.6c60.4,0,107.4,52.8,107.4,111.6C662.9,1354.4,615.5,1406.8,555.5,1406.8z M738.7,1432h36.7v-369.8
	h-36.7V1432z M914,1388.6l-92.8-229.9h-36.4L896.1,1432h37l111-273.3h-35.8L914,1388.6L914,1388.6z M1059.3,1432h36.7v-273.3h-36.7
	V1432L1059.3,1432z M1059.3,1123.5h36.7v-61.3h-36.7V1123.5z M1254.1,1152c-34.6,0-59.2,18.2-81.9,42.5v-35.8h-34V1432h36.1v-166.5
	c-0.3-44,36.1-81.9,80.4-81.9c55.5,0,83.4,48.2,83.4,98V1432h34v-150.5C1372.1,1210.6,1330.5,1152,1254.1,1152L1254.1,1152z
	 M1712.7,1062.2l-166.8,212v-212h-36.1V1432h36.1v-101.6l47.3-58.8l120.4,160.5h45.8l-143.2-189.6l143.2-180.2H1712.7z M1772.8,1432
	h35.8v-369.8h-35.8V1432z M2105,1227.5c-24.9-46.4-74.6-75.5-127.1-75.5c-78.2,0-144.4,65.2-144.4,143.5
	c0,78.9,66.7,142.9,145,142.9c37.3,0,74-14.9,101-40.6c16.4-15.5,26.1-34.9,34.9-55.2h-38.5c-19.4,37.9-53.7,64.3-98,64.3
	c-27,0-53.4-10.9-73.4-29.4c-20.6-18.8-29.7-41.9-33.7-69.2h252.1C2122.9,1279.7,2118.9,1252.4,2105,1227.5z M1872,1276.7
	c10.9-51.3,51.3-93.1,106.5-93.1c46.4,0,96.2,28.5,107.1,93.1H1872z M2149.6,1432h36.1v-273.3h-36.1V1432L2149.6,1432z
	 M2149.6,1124.7h36.1v-62.5h-36.1V1124.7z M2344.3,1152c-35.2,0-59.8,18.2-82.8,42.5v-35.8h-34.6V1432h36.4v-166.5
	c-0.3-44.3,37-81.9,81.6-81.9c55.2,0,84.4,48.2,84.4,98V1432h34v-150.5C2463.2,1210.6,2421.1,1152,2344.3,1152L2344.3,1152z"/>
</svg>
