<svg xmlns="http://www.w3.org/2000/svg" viewBox="0 0 2426.47 391.31"><defs><style>.cls-1{fill-rule:evenodd;}</style></defs><g id="Layer_2" data-name="Layer 2"><g id="Layer_1-2" data-name="Layer 1"><path class="cls-1" d="M195.35,357.33c-84.94,0-157.44-77-157.44-161.07,0-83.72,71-162.29,156.83-162.29,56.43,0,97.07,27.3,130.14,70.07h41.55C354,81.59,340.65,61,320.33,44.89,285.44,16.68,240.24,0,195.35,0,87.66,0,0,88.88,0,196,0,303.34,88.88,391.31,196,391.31c43.68,0,86.46-16.07,120.74-43.07C338.24,331,353.4,308.5,368,285.44H326.41c-32.77,42.77-74.63,71.89-131.06,71.89ZM626.1,152.58c-26.08-33.67-61.58-54.9-105.56-54.9-78.87,0-143.78,64-143.78,142.88S442,384,520.54,384c45.81,0,77.65-19.11,105.56-54.3v47.92h34.28V104.34H626.1ZM518.73,352.48c-60.38,0-108-52.48-108-111.62,0-58.86,47.32-111.63,108-111.63,60.36,0,107.37,52.79,107.37,111.63C626.1,300,578.78,352.48,518.73,352.48Zm183.21,25.17h36.71V7.87H701.94Zm175.33-43.38L784.45,104.34H748L859.38,377.65h37l111-273.31H971.62L877.27,334.27Zm145.31,43.38h36.7V104.34h-36.7V377.65Zm0-308.5h36.7V7.87h-36.7Zm194.75,28.51c-34.59,0-59.16,18.21-81.9,42.48v-35.8h-34V377.65h36.1V211.11c-.3-44,36.09-81.89,80.39-81.89,55.49,0,83.4,48.23,83.4,98V377.67h34V227.2c0-71-41.53-129.54-118-129.54ZM1676,7.87,1509.14,219.92V7.87H1473V377.65h36.1V276l47.32-58.85,120.43,160.46h45.82l-143.2-189.59L1722.71,7.87ZM1736,377.65h35.81V7.87H1736ZM2068.21,173.2c-24.88-46.42-74.63-75.54-127.12-75.54-78.24,0-144.39,65.23-144.39,143.49,0,78.85,66.74,142.87,145,142.87a147.47,147.47,0,0,0,101-40.65c16.39-15.47,26.09-34.88,34.87-55.21h-38.51c-19.43,37.93-53.7,64.31-98,64.31-27,0-53.37-10.92-73.38-29.43-20.65-18.8-29.74-41.87-33.7-69.16h252.11C2086.12,225.38,2082.17,198.07,2068.21,173.2Zm-233,49.14c11-51.26,51.27-93.12,106.5-93.12,46.41,0,96.16,28.52,107.08,93.12Zm277.58,155.31h36.09V104.34h-36.09V377.65Zm0-307.28h36.09V7.87h-36.09Zm194.76,27.29c-35.22,0-59.78,18.21-82.84,42.48v-35.8h-34.58V377.65h36.41V211.11c-.3-44.28,37-81.89,81.59-81.89,55.23,0,84.36,48.23,84.36,98V377.67h34V227.2c0-71-42.17-129.54-118.9-129.54Z"/></g></g></svg>