<svg xmlns="http://www.w3.org/2000/svg" viewBox="0 0 625.56 362.62"><defs><style>.cls-1,.cls-2{fill:#00193e;}.cls-1{fill-rule:evenodd;}</style></defs><g id="Layer_2" data-name="Layer 2"><g id="Camada_1" data-name="Camada 1"><path class="cls-1" d="M313.33,155c88,0,161.54-37.77,160.14-78.83C472.2,35.29,401.5,0,313.33,0,225,0,152.07,33.91,152.07,76.19,152.07,118.64,225,155,313.33,155ZM165,75.58c1.26-37.76,66.64-68.5,147.68-68.5,80.72,0,146.72,31.2,147.49,69.59s-66,71.49-146.86,71.49C232.29,148.16,163.63,113.38,165,75.58Z"/><path class="cls-1" d="M302.35,123.19c-4.88-.45-8.94-1.23-10.33-2.49-2.18-1.9-3.28-5.46-3.28-10.45V84.94h47.91v25.31c0,5-1.07,8.55-3.13,10.45-1.56,1.26-5.45,2-10.29,2.49v5.93H368v-5.93c-5-.45-8.9-1.23-10.29-2.49-2.18-1.9-3.31-5.46-3.31-10.45V44.84c0-5.18,1.13-8.58,3.31-10.48,1.39-1.26,5.3-2,10.29-2.5V25.94h-44.8v5.92c4.84.49,8.73,1.24,10.29,2.5,2.06,1.9,3.13,5.3,3.13,10.48V70.11H288.74V44.84c0-5.18,1.1-8.58,3.28-10.48,1.39-1.26,5.45-2,10.33-2.5V25.94H257.51v5.92c4.84.49,8.91,1.24,10.32,2.5,2.17,1.9,3.29,5.3,3.29,10.48v65.41c0,5-1.12,8.55-3.29,10.45-1.41,1.26-5.48,2-10.32,2.49v5.93h44.84Z"/><path class="cls-1" d="M297.39,208.58v-7h-50.1v7c6.07.46,8.12,1.53,10.53,3,3.49,2.25,6.49,6.34,9.24,12.42l43.53,99.6h4.7l43.33-99.6c2.62-6.08,5.63-10.17,9.08-12.42,2.47-1.52,4.65-2.59,10.56-3v-7H328.18l.13,7c5.47.46,9.72,1.53,10.79,3,1.49,2.25,1,6.34-1.55,12.42-6.81,15.32-13.63,30.94-20.16,46.4l-3.19,7.29-1.36,3-1.23-3-3.15-7.29c-6.84-15.46-13.67-31.08-20.31-46.4-2.75-6.08-3.23-10.17-1.69-12.42C287.54,210.11,291.79,209,297.39,208.58Z"/><path class="cls-1" d="M22.15,313.51c-1.67,1.5-6.38,2.58-12.13,3.16v7h53v-7c-5.73-.58-10.45-1.66-12.12-3.16-2.58-2.14-3.79-6.23-3.79-12.31V271.35H104V301.2c0,6.08-1.29,10.17-3.92,12.31-1.66,1.5-6.34,2.58-12.12,3.16v7h53v-7c-5.74-.58-10.44-1.66-12.09-3.16-2.59-2.14-3.8-6.23-3.8-12.31V224.05c0-6.08,1.21-10.17,3.8-12.43,1.65-1.5,6.35-2.58,12.09-3v-7h-53v7c5.78.45,10.46,1.53,12.12,3,2.63,2.26,3.92,6.35,3.92,12.43v29.73H47.15V224.05c0-6.08,1.21-10.17,3.79-12.43,1.67-1.5,6.39-2.58,12.12-3v-7H10v7c5.75.45,10.46,1.53,12.13,3,2.58,2.26,3.94,6.35,3.94,12.43V301.2C26.09,307.28,24.73,311.37,22.15,313.51Z"/><path class="cls-1" d="M494.17,313.51c-1.59,1.5-4.29,2.58-9.6,3.16v7h47.22v-7c-5.29-.58-9.71-1.66-11.23-3.16-2.39-2.14-3.48-6.23-3.48-12.31V239.79c21.84,27.77,45.35,55.24,65.82,83.86h19.53v-99.6c0-6.08,1.22-10.17,3.5-12.43,1.68-1.5,4.33-2.58,9.63-3v-7H568.31v7c5.33.45,9.73,1.53,11.23,3,2.24,2.26,3.5,6.35,3.5,12.43v69.3c-24.11-30.63-48.2-61.11-72.32-91.74H484.57v7c5.31.45,8,1.53,9.6,3,2.29,2.26,3.51,6.35,3.51,12.43V301.2C497.68,307.28,496.46,311.37,494.17,313.51Z"/><rect class="cls-2" y="162.63" width="625.56" height="22.9"/><path class="cls-1" d="M215.21,201.6l-43.52,99.6c-2.56,6.08-5.59,10.17-9.12,12.31-2.4,1.5-4.41,2.59-10.5,3.16v7h50v-7c-5.49-.57-9.7-1.66-10.78-3.16-1.65-2.14-1-6.23,1.51-12.31l4.27-9.54h41.23l4.09,9.54c2.58,6.08,3.19,10.17,1.65,12.31-1.2,1.5-5.29,2.59-10.88,3.16l-.16,7h50.1v-7c-6.08-.57-8.12-1.66-10.38-3.16-3.49-2.14-6.68-6.23-9.24-12.31L219.9,201.6Zm-10.62,72.46c4.42-10,8.66-19.82,13.06-29.7,4.23,9.88,8.63,19.71,12.87,29.7Z"/><path class="cls-1" d="M423.52,316.67l-.12,7h50.07v-7c-6.07-.57-8.08-1.66-10.38-3.16-3.48-2.14-6.64-6.23-9.23-12.31l-43.48-99.6h-4.71l-43.55,99.6c-2.55,6.08-5.61,10.17-9.09,12.31-2.43,1.5-4.45,2.59-10.54,3.16v7h49.95v-7c-5.45-.57-9.69-1.66-10.77-3.16-1.64-2.14-1-6.23,1.54-12.31l4.23-9.53H428.7l4.08,9.53c2.58,6.08,3.18,10.17,1.64,12.31-1.21,1.5-5.3,2.59-10.9,3.16ZM395,274.06c4.42-10,8.67-19.83,13-29.7,4.24,9.87,8.65,19.71,12.91,29.7Z"/><rect class="cls-2" y="339.72" width="625.56" height="22.9"/></g></g></svg>