<svg xmlns="http://www.w3.org/2000/svg" viewBox="0 0 1759.11 1620.5"><g id="Layer_2" data-name="Layer 2"><g id="Layer_1-2" data-name="Layer 1"><path d="M1049.88,390c-3.42,5.81-7.77,10.12-8.54,15-4.15,26.47-16,52-10.55,79.58.85,4.3,5.2,9.46,9.26,11.34,74,34.13,91.78,101.75,103.57,172.91C1153.11,726.15,1133,778,1114.3,830.4c-6.75,18.92-9.42,39.3-13.9,59-.34,1.54-.8,3.43-.23,4.74,14.95,34.69-4.62,63.63-16.18,93.54-8.06,20.83-19,40.51-27.84,61.08-5.21,12.19-8.93,25-12.83,37.74-2.5,8.14-1.6,18.68-6.54,24.45-17.26,20.14-8.81,41.13-4.23,61.79,4.65,21-23.51,53.06-44.72,49.61-11.64-1.9-17.74-17.2-20.14-30.76-6.26-35.24,16-63.68,20.3-96.5,2.76-21.14,19.15-40.14,26.39-61.14,10.3-29.88,26.06-58.57,24.29-91.73a2.69,2.69,0,0,1,.28-1.56c22.8-31.84.18-62.33-2.91-93.37a52.05,52.05,0,0,0-4.31-17c-2.67-5.63-7.11-10.42-13.54-19.46-1.57,8.68-2.81,12.06-2.65,15.37.46,10-3.74,13.09-13.89,14.74-16.64,2.69-32.86,8.3-49.09,13.21-15.73,4.75-32.26,8.29-46.5,16-9.71,5.23-19.48,15.38-23.35,25.56-17,44.64-31.6,90.17-47.58,135.2-3.81,10.74-11.23,20.4-13.77,31.31-1.75,7.52.68,16.9,3.79,24.38,2.92,7,9.94,12.26,13.76,19.06,3.61,6.44,4.81,14.41,15.23,12.24,1.54-.33,4,1.4,5.35,2.84,12.41,13.6,10.68,50.43-2.89,64.47-16.4,17-38.24,13.63-48-7.89-3.72-8.16-5.46-17.21-8.5-25.72-1.3-3.64-3.61-6.92-5.56-10.54-21,14.73-23.41,26-19.46,47.64,2.38,13,2.17,30.38-4.76,40.26-9.75,13.9-28.59,15.23-45.63,10.67-14.77-4-20-14.67-13.69-28.17,8.08-17.32,16.95-34.27,25.51-51.36.71-1.43,2.52-2.95,2.29-4.13-6.56-33.32,23.88-59.67,17.26-93.68-1.77-9.08,6-20.18,9.82-30.17,11.41-29.67,27.13-58.41,33.49-89.1,7-33.6-22.4-69.65-56.63-78.77-2.69-.72-6.27,0-8.9,1.23-35.41,16.42-60.07,46.1-78.74,77.51-11.33,19.06-9.71,47.35-9.35,71.43.4,27.44,6.49,54.76,8.83,82.24,1,12-1.16,24.2-1.88,36.26,25.1,9,40.52,47.53,28.8,72.28-6.08,12.85-15.35,22.55-30.64,21.75-15-.79-22.79-12.64-26.27-24.78-5-17.32-16-34.25-7.38-54,1.36-3.13-1.16-10.16-4.15-12.6-11.48-9.34-11.57-21.73-12.51-34.75-2.21-30.69-7.16-61.27-7.78-92-.52-26.22-3.91-51.73,13.33-77.9,16.38-24.87,21.32-57.39,30.53-86.79,3.78-12.05,5.59-24.72,8.22-36.81-1.1-.74-1.52-1.24-2-1.31-34.72-4.66-36.28-7.11-20.16-39.33,7.73-15.45,19.83-29.11,25.42-45.16,8.88-25.52,14.12-52.34,20.59-78.68,2.73-11.12-1.49-17.17-10.32-18.94,1.23-20.36,2.45-40.42,3.77-62.32,9.3-1.15,17.63-7,10.75-24.45-7.23,7.78-13.93,14.93-20.55,22.15-23.08,25.2-46.55,50.06-69,75.83-7.5,8.63-12.79,19.35-18.18,29.59-7.7,14.63-6,28.73,4.07,42a23.46,23.46,0,0,1,4.83,14.5c-11.61-5.48-16.22-16.19-17.38-27.61-2.58-25.43,3.58-47.41,23-66.58,31.5-31.11,62.19-63.28,90.5-97.27,13.46-16.17,27.69-37.24,28.59-56.68.83-18,11.13-41.27-7.78-58.57-2-1.81.3-10.5,2.85-14.6,8.12-13.1,8.68-49.48-.41-61.26-1.7-2.2-5.22-3-9-5.05,2.46-7.47,7.23-15.05,6.94-22.43-.81-20.39-.19-39.26,15.3-55.46,4.74-5,4.7-14.48,7.21-23.12-21-28.36-21.73-64.36.62-81.57,8.18,18.39,16,36.64,24.5,54.58,2,4.25,6.23,7.45,9.44,11.14,2.82-3.9,7.65-7.56,8.15-11.75C763.44,148,808.13,120.6,848.77,92.7c30.07-20.65,67.1-22.59,103.48-14,6.63,1.56,13.58,1.78,22.13,2.83-1.16-7.36-2.09-13.28-3-19.21l3.3,1.8c4.81-6.28,10-12.32,14.35-18.9,5.55-8.39,9-18.6,15.86-25.6,26.57-27.17,52.92-25.87,78.36,2.45,14,15.57,23.76,32.32,22.06,54.67-.53,6.91,3.57,15.23,7.86,21.26,13,18.26,13,22-4.66,35.82,12.55,15.85,3,27.47-7.33,40.06-3.82,4.67-6.3,14-4.27,19.3,11.89,30.7,13.55,61.91,11.45,94.45-1.17,18.2,4.38,36.82,6.86,55.26,2,14.65,4.1,29.29,5.82,44,3.57,30.67,19.62,56.31,34.67,81.85,10,16.93,6.06,31.05.12,47-3.36,9-6.55,19.53-5.1,28.63,15.39,97,31.07,193.87,48,290.57,14.53,83,31,165.67,46,248.58,1.7,9.38,4.48,14.24,14.63,14.84,7.88.47,15.59,3.4,23.42,5,12,2.42,23.07,4.93,32.93-7.46,7.42-9.35,17.65-4.77,25.19,2.66,7.83,7.72,9.8,16.72,2.2,25.69-6.94,8.19-15.46,14.48-26.16,6.75-6.19-4.48-11.72-4.72-19.23-5.12-33-1.76-65.8-5.79-98.63-9.46a24.93,24.93,0,0,1-13-5.67c-4.14-3.64-6.77-9-10.06-13.6,5.33-1.72,10.67-4.92,16-4.87,13.15.12,26.28,1.72,41.51,2.88-6-37.41-10.85-72.66-17.4-107.6-27.22-145.22-54.48-290.44-83.19-435.38-3.09-15.58-16.53-28.89-23.51-44-3.18-6.91-5.56-17.26-2.61-23.24,5.07-10.26,2.54-16.88-3.33-24.53C1086.9,438.83,1070.51,417.15,1049.88,390Zm47.34-258c-11,2.85-20.35,2.75-22.11,6.35-2.14,4.37.7,12.82,4.05,17.64,2.16,3.1,9.14,2.83,14,4.06Z"/><path d="M1542.5,1319.56l77.74-5.21v115.07c25.26-14.25,49.85-17.49,75.9-12,27.67,5.82,45.89,22.23,54.65,48.46a158.25,158.25,0,0,1,3,91.56c-12.39,47.57-61.75,72.93-111.7,57.26-10.56-3.31-20.49-8.61-31.19-13.2a18.71,18.71,0,0,0-2.06,1q-11.41,6.88-22.8,13.8c-2.57-7.92-7.32-15.82-7.38-23.76-.57-74.78-.32-149.56-.36-224.34,0-24.28-1.94-26.22-24.64-34.17C1549.66,1332.67,1547.46,1326.28,1542.5,1319.56Zm78,192.17c0,12.27,0,24.54,0,36.8.08,29.88,12,46.19,36.31,49.75,24.86,3.64,43.91-9.13,51.93-36.7a156.71,156.71,0,0,0-2.14-95.92,54.34,54.34,0,0,0-9.54-16.47c-12-14.68-33.8-19.67-52.54-12.75-17.42,6.43-24.06,17.54-24,40.09Q1620.48,1494.13,1620.45,1511.73Z"/><path d="M4.09,1323.31c46.31,1.64,92.81,1.27,138.88,5.57,35,3.26,65.07,18.17,74.87,56.91,10,39.48-7.1,76-45.65,88.77-23.36,7.71-49,8.71-73.66,12.18-7.2,1-14.65.15-22.86.15,0,31.25-.94,60.49.43,89.61.62,13.27,8.37,23.85,22.93,27.7,2.86.76,4.71,5.34,7,8.15-2.82,1.74-5.63,5-8.48,5q-44,.54-88.08-.06c-2.55,0-5-3.76-7.56-5.77,2.05-2.42,3.88-6.68,6.2-7,20-2.48,24.23-15.18,24.1-32.92q-.76-101.7-.12-203.42c.11-16.38-5.57-26.28-21.87-30.28C6.37,1337,3.39,1332.4,0,1329.5,1.36,1327.44,2.72,1325.37,4.09,1323.31Zm70.86,16c0,41.37-.61,78.56.72,115.69.18,5,10.09,13.79,15.49,13.78,15.69,0,32.1-1.41,46.92-6.25,23.61-7.72,34.1-28.61,33.66-59.38-.38-27.35-12.54-48.73-35.54-55C117.14,1343,96.88,1342.31,75,1339.32Z"/><path d="M1172.1,1531.56c-.83,45-41.43,83.09-87.34,88-80.67,8.59-140.74-41.63-146.71-122.62-3.56-48.13,1.05-94,35.44-132,40.08-44.22,97.32-55.53,151.35-29.72,7.58,3.61,13.33,5.55,18.08-4.55,1.71-3.64,8.74-4.76,15.81-8.26v97c-10.66,4.17-16.09,1.22-17.91-10.11-1.43-8.87-4.29-17.57-7.1-26.15-17.61-53.61-80.49-52-105.6-20.86-12.5,15.48-24.33,33.08-30.55,51.7-13.3,39.84-12.64,80.92.66,121.17,13.21,40,40.38,63.45,74.55,65.13,39.36,1.94,72.75-19.51,90-57.32C1164.78,1538.63,1169,1535.33,1172.1,1531.56Z"/><path d="M1539.84,1612.33l-71.21,4.7c-.63-8.68-1.2-16.44-2-27-6,4.58-10.68,8.31-15.52,11.87-21.06,15.51-44.52,20-69.81,14.17-26.95-6.25-41.18-26.5-42-60.42-.61-26.69-.17-53.41-.18-80.12,0-30.9-1.15-32.41-30.77-40.41-3.19-10-.44-14.33,11-14.45,19.72-.22,39.41-1.85,61.12-3,.33,5.79.93,11.41.94,17,.1,37.39-.07,74.79.13,112.18.15,27.89,7.63,40.85,24.93,44.43,20.29,4.21,51.11-11,59.64-29.55a7.74,7.74,0,0,0,1-3c0-34.71.95-69.47-1.05-104.07-.35-6-12.4-14.18-20.39-16.33-10.14-2.72-12-6.61-9.12-16.29l73.33-4.8v20.87c0,42.73.29,85.47-.2,128.2-.19,16.06,4.73,27.57,21.79,29.87C1542.51,1597.71,1542.91,1603.39,1539.84,1612.33Z"/><path d="M243.91,1516.58c1.59-12.12,2.27-24.43,5-36.3,7.06-31.23,26-52.06,57.22-60.47,27.38-7.38,54.9-7.16,81.92,1.83,25.76,8.57,44,26.65,48.59,52.77,4.31,24.72,6.37,51.24,2.23,75.76-8.72,51.59-46.71,71.09-101.43,68.17C272.94,1614.91,245,1582.65,243.91,1516.58ZM402,1515.12c-3.87-16.32-6.43-35.48-13.11-53.08-7.58-20-25.43-28.1-46.26-27.76s-37.75,9.06-45.44,29.27c-13.43,35.31-12.73,71.09,1.43,106,8.6,21.24,26.11,30.09,48.53,29.4s38.52-11.85,45.26-33.86C397,1550,398.53,1534,402,1515.12Z"/><path d="M791.31,1517.46c-.68,9-.56,18.2-2.18,27.06-9.76,53.42-49.11,80.06-108.59,74-55.82-5.73-82-31.88-86.53-87.94a180.2,180.2,0,0,1,1.85-43c6.6-40.35,29.4-64.11,70.21-69.67a196.74,196.74,0,0,1,63.28,1.67c35.28,6.91,57.57,37.36,60.8,77.08.56,6.88.08,13.85.08,20.78Zm-157.6-2.36c4.56,18.59,7.38,37.7,14.06,55.36,7.8,20.62,25.64,29.09,47.3,28.63,21.31-.45,37.08-10.49,44.44-30.57,12.76-34.8,12.75-70.14-.91-104.65-8.12-20.53-25.3-29.73-46.94-29.58-20.9.14-38.17,8.56-45.46,28.92C640.37,1479.5,637.92,1497,633.71,1515.1Z"/><path d="M466.34,1319.3l71.93-5.17v18.15q0,117.63.05,235.27c0,17-.84,34.25,22.63,37.17,1.7.21,4.2,4.9,3.87,7.15-.31,2.09-3.87,5.25-6,5.28q-40,.55-80,0c-2.17,0-6.27-3.77-6-5.21.48-2.86,2.95-7.09,5.32-7.64,15.36-3.54,18-14.4,18-27.83-.15-71.49-.41-143,.18-214.46.14-16.62-7.32-24-22.3-27.86-4.54-1.16-7.93-6.83-11.84-10.43C463.51,1322.25,464.92,1320.77,466.34,1319.3Z"/><path d="M1264.83,1314.09v18.4c0,80.61.16,161.22-.13,241.83,0,14.88,3,26.18,19.67,30,3.17.74,5.27,6.13,10.22,12.31H1194.43c4.89-6.19,7-11.59,10.12-12.33,13.55-3.19,18.2-12.43,18.23-24.66.18-73.67,0-147.34.15-221,0-14.64-8.76-21.77-21.39-23.47-10.84-1.45-11.86-6.47-9.13-15.83Z"/></g></g></svg>