<svg xmlns="http://www.w3.org/2000/svg" xmlns:xlink="http://www.w3.org/1999/xlink" viewBox="0 0 368.2 141.34"><defs><style>.cls-1{fill:#e62625;}.cls-2{fill:#fff;}</style><symbol id="flix-logo" data-name="flix-logo" viewBox="0 0 368.2 141.34"><ellipse class="cls-1" cx="184.1" cy="70.67" rx="184.1" ry="70.67"/><path class="cls-2" d="M217.31,31.2c-5.27.13-10.54.16-15.81,0-2.14-.06-2.54.6-2.53,2.49.09,12.33.05,24.66.05,37h0c0,12.41,0,24.83,0,37.24,0,1.68.41,2.24,2.28,2.19,5.44-.12,10.88-.1,16.33,0,1.65,0,2-.49,2-2q0-37.36,0-74.72C219.65,31.79,219.2,31.16,217.31,31.2Z"/><path class="cls-2" d="M306.88,34.53c.35-.51,1.16-1,.77-1.69s-1.26-.31-1.91-.32q-8,0-16.09,0c-7.24,0-7.18,0-10.18,6.36-3.09,6.55-6.32,13-9.48,19.5-.69-.15-.78-.57-1-.93-4.47-7.92-9-15.82-13.39-23.78a2.73,2.73,0,0,0-2.81-1.58c-6.74,0-13.49,0-20.24,0-.46,0-1.05-.2-1.45.58.39.67.8,1.47,1.3,2.21Q244,52,255.6,69.12c.87,1.27,1,2.12.05,3.45-8.48,11.81-16.86,23.68-25.3,35.5-.4.56-.89,1.06-.63,1.71s.91.32,1.38.32c7.27,0,14.53,0,21.8,0a2,2,0,0,0,2.09-1.38c1.34-2.91,2.77-5.8,4.18-8.69,2.81-5.75,5.64-11.5,8.44-17.2,1,.17,1,.84,1.25,1.33q6.6,12.08,13.17,24.15c.46.85.75,1.8,2.14,1.79,7.67,0,15.35,0,23.08,0a4.44,4.44,0,0,0-1.08-2.57c-7.61-11.37-15.18-22.76-22.9-34-1.28-1.86-1.32-3.13,0-5C291.21,57.22,299,45.87,306.88,34.53Z"/><path class="cls-2" d="M185.22,95c-9.76.11-19.53,0-29.3.12-2.62,0-3.31-.58-3.29-3.1.13-19.28,0-38.56.15-57.85,0-2.31-.71-2.9-3.08-2.82-5.26.16-10.54.1-15.81,0-2.08,0-3,.42-3,2.7.13,12.26.06,24.51.06,36.77h0c0,12.33,0,24.67,0,37,0,1.63.35,2.25,2.26,2.24q25.93-.1,51.87,0c2,0,2.46-.59,2.39-2.36-.13-3.51-.11-7,0-10.54C187.54,95.58,187.14,95,185.22,95Z"/><path class="cls-2" d="M83.83,46c10.2.15,20.41,0,30.61.1,1.57,0,2.14-.47,2.09-2-.1-3.18,0-6.37-.06-9.55s0-3.2-3.32-3.2q-24.65,0-49.29,0c-3.37,0-3.41-.74-3.4,3.31q0,18,0,36h0c0,12.42,0,24.84,0,37.26,0,1.63.29,2.26,2.23,2.2q7.91-.22,15.82,0c2,.06,2.47-.45,2.44-2.29-.1-9.15,0-18.3-.11-27.45,0-2.35.74-2.79,3.06-2.76,9.25.12,18.5,0,27.75.08,1.87,0,2.64-.39,2.56-2.29-.14-3.43-.15-6.87,0-10.29.08-1.95-.6-2.51-2.65-2.49-9.51.08-19,0-28.53.07-1.89,0-2.15-.63-2.13-2.1.06-3.92.14-7.85,0-11.76C80.76,46.64,81.37,45.93,83.83,46Z"/></symbol></defs><g id="Layer_2" data-name="Layer 2"><g id="Layer_1-2" data-name="Layer 1"><use width="368.2" height="141.34" xlink:href="#flix-logo"/></g></g></svg>